<svg height="1200" viewBox="0 0 1200 1200" width="1200" xmlns="http://www.w3.org/2000/svg" xmlns:xlink="http://www.w3.org/1999/xlink"><radialGradient id="a" cx="50%" cy="35%" r="55%"><stop offset="0" stop-color="#6366f1" stop-opacity=".32"/><stop offset=".6" stop-color="#6366f1" stop-opacity="0"/></radialGradient><path d="m0 0h1200v1200h-1200z" fill="#020617"/><path d="m0 285h1200v630h-1200z" fill="url(#a)"/><g transform="translate(0 285)"><g fill="none" stroke="#818cf8" stroke-linecap="round" stroke-linejoin="round" stroke-width="1.7" transform="matrix(5.8 0 0 5.8 530 110)"><path d="m14.5 17.5-11.5-11.5v-3h3l11.5 11.5"/><path d="m13 19 6-6"/><path d="m16 16 4 4"/><path d="m19 21 2-2"/><path d="m14.5 6.5 3.5-3.5h3v3l-3.5 3.5"/><path d="m5 14 4 4"/><path d="m7 17-3 3"/><path d="m3 19 2 2"/></g><g font-family="-apple-system, system-ui, 'Helvetica Neue', Arial, sans-serif" text-anchor="middle"><text font-size="112" font-weight="800" letter-spacing="-3" x="600" y="400"><tspan fill="#818cf8">Open</tspan><tspan fill="#e2e8f0">Fray</tspan></text><text fill="#94a3b8" font-size="33" x="600" y="458">A DnD 5e combat console for Game Masters</text><text fill="#64748b" font-size="25" letter-spacing="2" x="600" y="540">openfray.app</text></g></g></svg>